<svg class="diagram-root" style="background: #f5f6f6" xmlns="http://www.w3.org/2000/svg" xmlns:xlink="http://www.w3.org/1999/xlink"><style>.diagram-root { font-family: "Helvetica Neue", sans-serif; font-size: 12px; } .t { overflow: visible; } .t-bg { y: 40; fill: #fff;   } .th { fill: #005aa0;   } .tht { fill: #fff; font-size: 14px;  } .tf { fill: #323c46; overflow: visible; } .tf.pk { fill: #005aa0; font-weight: bold; } .tf.fk { font-weight: bold; } .ty { fill: #adb1b5; font-weight: normal; text-anchor: end; } .r { fill: transparent; stroke: #c3c3c3; stroke-width: 1; } .l { stroke: 1; } .i { fill: #c2c7ce; stroke: #c2c7ce; } .i.ix { fill: #afb3b6; stroke: #000; } .fa { fill: transparent; overflow: visible; } .fa .bg.hover { fill: #f7f7f7; } .c { cy: 12; r: 4; stroke: #d2d2dc; fill: #d2d2dc; } .hr { fill: transparent; stroke: #323c46; stroke-opacity: 0.035; stroke-width: 13; } .dc { stroke: #fa5a3c; fill: #fa5a3c; } .x { stroke: white; stroke-width: 1; } .hl .th { fill: #1b9bff; } .hl .tht {  } .fhl .bg { fill: #e7f4ff; } .fhls .bg {  } .r.hl { stroke: #1b9bff; } .dim { opacity: 0.25; }</style><g class="drawing-wrapper" transform="translate(16, -2) scale(1,1)"><g class="rs"><path d="M 409 131 m -1, 0 a 1,1 0 1,0 2,0 a 1,1 0 1,0 -2,0 M 409 131 m -0.5, 0 a 0.5,0.5 0 1,0 1,0 a 0.5,0.5 0 1,0 -1,0  M409 131 L409 131 421 131 M 409 137 m -1, 0 a 1,1 0 1,0 2,0 a 1,1 0 1,0 -2,0 M 409 137 m -0.5, 0 a 0.5,0.5 0 1,0 1,0 a 0.5,0.5 0 1,0 -1,0  M409 137 L409 137 416 131 409 125 M 409 125 m -1, 0 a 1,1 0 1,0 2,0 a 1,1 0 1,0 -2,0 M 409 125 m -0.5, 0 a 0.5,0.5 0 1,0 1,0 a 0.5,0.5 0 1,0 -1,0  M421 131 Q 452.25 131, 483.5 110 T 546 89 M 558 89 m -1, 0 a 1,1 0 1,0 2,0 a 1,1 0 1,0 -2,0 M 558 89 m -0.5, 0 a 0.5,0.5 0 1,0 1,0 a 0.5,0.5 0 1,0 -1,0  M558 89 L558 89 546 89 M552 95 L552 95 552 83" id="h3034974808" class="r"></path><path d="M 436 342 m -1, 0 a 1,1 0 1,0 2,0 a 1,1 0 1,0 -2,0 M 436 342 m -0.5, 0 a 0.5,0.5 0 1,0 1,0 a 0.5,0.5 0 1,0 -1,0  M436 342 L436 342 448 342 M 436 348 m -1, 0 a 1,1 0 1,0 2,0 a 1,1 0 1,0 -2,0 M 436 348 m -0.5, 0 a 0.5,0.5 0 1,0 1,0 a 0.5,0.5 0 1,0 -1,0  M436 348 L436 348 443 342 436 336 M 436 336 m -1, 0 a 1,1 0 1,0 2,0 a 1,1 0 1,0 -2,0 M 436 336 m -0.5, 0 a 0.5,0.5 0 1,0 1,0 a 0.5,0.5 0 1,0 -1,0  M448 342 Q 475.25 342, 502.5 281.5 T 557 221 M 569 221 m -1, 0 a 1,1 0 1,0 2,0 a 1,1 0 1,0 -2,0 M 569 221 m -0.5, 0 a 0.5,0.5 0 1,0 1,0 a 0.5,0.5 0 1,0 -1,0  M569 221 L569 221 557 221 M563 227 L563 227 563 215" id="h2726736779" class="r"></path><path d="M 138 183 m -1, 0 a 1,1 0 1,0 2,0 a 1,1 0 1,0 -2,0 M 138 183 m -0.5, 0 a 0.5,0.5 0 1,0 1,0 a 0.5,0.5 0 1,0 -1,0  M138 183 L138 183 150 183 M 138 189 m -1, 0 a 1,1 0 1,0 2,0 a 1,1 0 1,0 -2,0 M 138 189 m -0.5, 0 a 0.5,0.5 0 1,0 1,0 a 0.5,0.5 0 1,0 -1,0  M138 189 L138 189 145 183 138 177 M 138 177 m -1, 0 a 1,1 0 1,0 2,0 a 1,1 0 1,0 -2,0 M 138 177 m -0.5, 0 a 0.5,0.5 0 1,0 1,0 a 0.5,0.5 0 1,0 -1,0  M150 183 Q 173.75 183, 197.5 144.5 T 245 106 M 257 106 m -1, 0 a 1,1 0 1,0 2,0 a 1,1 0 1,0 -2,0 M 257 106 m -0.5, 0 a 0.5,0.5 0 1,0 1,0 a 0.5,0.5 0 1,0 -1,0  M257 106 L257 106 245 106 M251 112 L251 112 251 100" id="h3137675399" class="r"></path><path d="M 138 208 m -1, 0 a 1,1 0 1,0 2,0 a 1,1 0 1,0 -2,0 M 138 208 m -0.5, 0 a 0.5,0.5 0 1,0 1,0 a 0.5,0.5 0 1,0 -1,0  M138 208 L138 208 150 208 M 138 214 m -1, 0 a 1,1 0 1,0 2,0 a 1,1 0 1,0 -2,0 M 138 214 m -0.5, 0 a 0.5,0.5 0 1,0 1,0 a 0.5,0.5 0 1,0 -1,0  M138 214 L138 214 145 208 138 202 M 138 202 m -1, 0 a 1,1 0 1,0 2,0 a 1,1 0 1,0 -2,0 M 138 202 m -0.5, 0 a 0.5,0.5 0 1,0 1,0 a 0.5,0.5 0 1,0 -1,0  M150 208 Q 173.25 208, 196.5 250 T 243 292 M 255 292 m -1, 0 a 1,1 0 1,0 2,0 a 1,1 0 1,0 -2,0 M 255 292 m -0.5, 0 a 0.5,0.5 0 1,0 1,0 a 0.5,0.5 0 1,0 -1,0  M255 292 L255 292 243 292 M249 298 L249 298 249 286" id="h2296224473" class="r"></path></g><g class="hrs"></g><g class="ts"><svg width="132" height="175" x="6" y="51" id="h3007999074" class="t"><rect height="40" width="132" class="th"></rect><text x="13" y="25" class="tht">transaction</text><rect height="135" width="132" class="t-bg" y="40"></rect><text x="13" y="61" class="tf pk">id<tspan x="119" class="ty">int</tspan></text><path d="M7,14A2,2 0 0,1 5,12A2,2 0 0,1 7,10A2,2 0 0,1 9,12A2,2 0 0,1 7,14M12.65,10C11.83,7.67 9.61,6 7, 6A6, 6 0 0, 0 1, 12A6, 6 0 0, 0 7, 18C9.61, 18 11.83, 16.33 12.65, 14H17V18H21V14H23V10H12.65Z" class="i pk" transform="translate(86, 48) scale(0.65)"></path><text x="13" y="86" class="tf">date<tspan x="119" class="ty">datetime</tspan></text><text x="13" y="111" class="tf">amount<tspan x="119" class="ty">float</tspan></text><text x="13" y="136" class="tf fk">card<tspan x="119" class="ty">varchar(50)</tspan></text><text x="13" y="161" class="tf fk">id_merchant<tspan x="119" class="ty">int</tspan></text></svg><svg width="152" height="100" x="257" y="49" id="h198306241" class="t"><rect height="40" width="152" class="th"></rect><text x="13" y="25" class="tht">credit_card</text><rect height="60" width="152" class="t-bg" y="40"></rect><text x="13" y="61" class="tf pk">card<tspan x="139" class="ty">varchar(50)</tspan></text><path d="M7,14A2,2 0 0,1 5,12A2,2 0 0,1 7,10A2,2 0 0,1 9,12A2,2 0 0,1 7,14M12.65,10C11.83,7.67 9.61,6 7, 6A6, 6 0 0, 0 1, 12A6, 6 0 0, 0 7, 18C9.61, 18 11.83, 16.33 12.65, 14H17V18H21V14H23V10H12.65Z" class="i pk" transform="translate(57, 48) scale(0.65)"></path><text x="13" y="86" class="tf fk">cardholder_id<tspan x="139" class="ty">int</tspan></text></svg><svg width="140" height="100" x="558" y="32" id="h99212310" class="t"><rect height="40" width="140" class="th"></rect><text x="13" y="25" class="tht">card_holder</text><rect height="60" width="140" class="t-bg" y="40"></rect><text x="13" y="61" class="tf pk">id<tspan x="127" class="ty">serial</tspan></text><path d="M7,14A2,2 0 0,1 5,12A2,2 0 0,1 7,10A2,2 0 0,1 9,12A2,2 0 0,1 7,14M12.65,10C11.83,7.67 9.61,6 7, 6A6, 6 0 0, 0 1, 12A6, 6 0 0, 0 7, 18C9.61, 18 11.83, 16.33 12.65, 14H17V18H21V14H23V10H12.65Z" class="i pk" transform="translate(76, 48) scale(0.65)"></path><text x="13" y="86" class="tf">name<tspan x="127" class="ty">varchar(50)</tspan></text></svg><svg width="181" height="125" x="255" y="235" id="h1481749269" class="t"><rect height="40" width="181" class="th"></rect><text x="13" y="25" class="tht">merchant</text><rect height="85" width="181" class="t-bg" y="40"></rect><text x="13" y="61" class="tf pk">id<tspan x="168" class="ty">serial</tspan></text><path d="M7,14A2,2 0 0,1 5,12A2,2 0 0,1 7,10A2,2 0 0,1 9,12A2,2 0 0,1 7,14M12.65,10C11.83,7.67 9.61,6 7, 6A6, 6 0 0, 0 1, 12A6, 6 0 0, 0 7, 18C9.61, 18 11.83, 16.33 12.65, 14H17V18H21V14H23V10H12.65Z" class="i pk" transform="translate(117, 48) scale(0.65)"></path><text x="13" y="86" class="tf">name<tspan x="168" class="ty">varchar(50)</tspan></text><text x="13" y="111" class="tf fk">id_merchant_category<tspan x="168" class="ty">int</tspan></text></svg><svg width="148" height="100" x="569" y="164" id="h1670232039" class="t"><rect height="40" width="148" class="th"></rect><text x="13" y="25" class="tht">merchant_category</text><rect height="60" width="148" class="t-bg" y="40"></rect><text x="13" y="61" class="tf pk">id<tspan x="135" class="ty">serial</tspan></text><path d="M7,14A2,2 0 0,1 5,12A2,2 0 0,1 7,10A2,2 0 0,1 9,12A2,2 0 0,1 7,14M12.65,10C11.83,7.67 9.61,6 7, 6A6, 6 0 0, 0 1, 12A6, 6 0 0, 0 7, 18C9.61, 18 11.83, 16.33 12.65, 14H17V18H21V14H23V10H12.65Z" class="i pk" transform="translate(84, 48) scale(0.65)"></path><text x="13" y="86" class="tf">name<tspan x="135" class="ty">varchar(50)</tspan></text></svg></g></g><text class="qdbd-link" x="10" y="20">www.quickdatabasediagrams.com</text></svg>